# AST/ASF file generated using VICON BodyLanguage
# -----------------------------------------------
:version 1.10
:name VICON
:units
  mass 1.0
  length 0.45
  angle deg
:documentation
   .ast/.asf automatically generated from VICON data using
   VICON BodyBuilder and BodyLanguage model FoxedUp or BRILLIANT.MOD
:root
   order TX TY TZ RX RY RZ
   axis XYZ
   position 0 0 0  
   orientation 0 0 0 
:bonedata
  begin
     id 1 
     name lhipjoint
     direction 0.597014 -0.743513 0.301268 
     length 2.48253 
     axis 0 0 0  XYZ
  end
  begin
     id 2 
     name lfemur
     direction 0.34202 -0.939693 0  
     length 7.51389  
     axis 0 0 20  XYZ
    dof rx ry rz
    limits (-160.0 20.0)
           (-70.0 70.0)
           (-60.0 70.0)
  end
  begin
     id 3 
     name ltibia
     direction 0.34202 -0.939693 0   
     length 7.54147   
     axis 0 0 20   XYZ
    dof rx
    limits (-10.0 170.0)
  end
  begin
     id 4 
     name lfoot
     direction 0.10378 -0.285133 0.952853   
     length 2.2132   
     axis -90 7.62852e-016 20   XYZ
    dof rx rz
    limits (-45.0 90.0)
           (-70.0 20.0)
  end
  begin
     id 5 
     name ltoes
     direction 1.5354e-011 -4.2171e-011 1   
     length 1.10362   
     axis -90 7.62852e-016 20   XYZ
    dof rx
    limits (-90.0 20.0)
  end
  begin
     id 6 
     name rhipjoint
     direction -0.591912 -0.747009 0.302685   
     length 2.47092  
     axis 0 0 0  XYZ 
  end
  begin
     id 7 
     name rfemur
     direction -0.34202 -0.939693 0   
     length 7.69991   
     axis 0 0 -20   XYZ
    dof rx ry rz
    limits (-160.0 20.0)
           (-70.0 70.0)
           (-70.0 60.0)
  end
  begin
     id 8 
     name rtibia
     direction -0.34202 -0.939693 0   
     length 7.40774   
     axis 0 0 -20   XYZ
    dof rx
    limits (-10.0 170.0)
 end
 begin
     id 9 
     name rfoot
     direction -0.0916245 -0.251736 0.963449   
     length 2.08235  
     axis -90 -7.62852e-016 -20   XYZ
    dof rx rz
    limits (-45.0 90.0)
           (-20.0 70.0)
  end
  begin
     id 10 
     name rtoes
     direction -1.53527e-011 -4.21878e-011 1   
     length 1.04369   
     axis -90 -7.62852e-016 -20   XYZ
    dof rx
    limits (-90.0 20.0)
  end
  begin
     id 11 
     name lowerback
     direction -0.0122523 0.991496 -0.12956   
     length 2.10814   
     axis 0 0 0   XYZ
    dof rx ry rz
    limits (-20.0 45.0)
           (-30.0 30.0)
           (-30.0 30.0)
  end
  begin
     id 12 
     name upperback
     direction 0.012378 0.999784 -0.0167122   
     length 2.11728   
     axis 0 0 0   XYZ
    dof rx ry rz
    limits (-20.0 45.0)
           (-30.0 30.0)
           (-30.0 30.0)
  end
  begin
     id 13 
     name thorax
     direction 0.0187236 0.998893 0.0431542   
     length 2.15267   
     axis 0 0 0   XYZ
    dof rx ry rz
    limits (-20.0 45.0)
           (-30.0 30.0)
           (-30.0 30.0)
  end
  begin
     id 14 
     name lowerneck
     direction 0.0165467 0.987304 0.157979   
     length 1.72129   
     axis 0 0 0   XYZ
    dof rx ry rz
    limits (-20.0 45.0)
           (-30.0 30.0)
           (-30.0 30.0)
  end
  begin
     id 15 
     name upperneck
     direction -0.0560236 0.986819 -0.151818   
     length 1.75382   
     axis 0 0 0   XYZ
    dof rx ry rz
    limits (-20.0 45.0)
           (-30.0 30.0)
           (-30.0 30.0)
  end
  begin
     id 16
     name head
     direction -0.0173602 0.99745 -0.0692312  
     length 1.76328  
     axis 0 0 0   XYZ
    dof rx ry rz
    limits (-20.0 45.0)
           (-30.0 30.0)
           (-30.0 30.0)
  end
  begin
     id 17 
     name lclavicle
     direction 0.957734 0.271724 -0.094399  
     length 3.5782  
     axis 0 0 0   XYZ
    dof ry rz
    limits (-20.0 10.0)
           (0.0 20.0)
  end
  begin
     id 18 
     name lhumerus
     direction 1 -4.48963e-011 1.21581e-027   
     length 5.25525   
     axis 180 -30 -90   XYZ
    dof rx ry rz
    limits (-60.0 90.0)
           (-90.0 90.0)
           (-90.0 90.0)
  end
  begin
     id 19
     name lradius
     direction 1 -4.48975e-011 3.71216e-028   
     length 3.35106   
     axis 180 -30 -90   XYZ
    dof rx
    limits (-10.0 170.0)
  end
  begin
     id 20
     name lwrist
     direction 1 -4.48957e-011 4.76535e-027   
     length 1.67553   
     axis -3.27501e-015 90 90   XYZ
    dof ry
    limits (-180.0 0.0)
 end
  begin
     id 21 
     name lhand
     direction 1 -4.49008e-011 9.52727e-027   
     length 0.574153   
     axis -6.08097e-015 90 90   XYZ
    dof rx rz
    limits (-90.0 90.0)
           (-45.0 45.0)
  end
  begin
     id 22 
     name lfingers
     direction 1 -4.48996e-011 1.90562e-026   
     length 0.462897   
     axis -1.21618e-014 90 90   XYZ
    dof rx
    limits (0.0 90.0)
  end
  begin
     id 23
     name lthumb
     direction 0.707107 -6.34908e-011 0.707107   
     length 0.66463   
     axis -90 45 -1.62303e-014   XYZ
    dof rx rz
    limits (-45.0 45.0)
           (-45.0 45.0)
  end
  begin
     id 24 
     name rclavicle
     direction -0.950439 0.29623 -0.0944132   
     length 3.45861  
     axis 0 0 0   XYZ 
    dof ry rz
    limits (-10.0 20.0)
           (-20.0 0.0)
  end
  begin
     id 25 
     name rhumerus
     direction -1 -4.48986e-011 1.25473e-027  
     length 5.33104   
     axis 180 30 90   XYZ
    dof rx ry rz
    limits (-90.0 60.0)
           (-90.0 90.0)
           (-90.0 90.0)
  end
  begin
     id 26 
     name rradius
     direction -1 -4.4894e-011 1.66273e-027   
     length 3.39883   
     axis 180 30 90   XYZ
    dof rx
    limits (-10.0 170.0)
  end
  begin
     id 27 
     name rwrist
     direction -1 -4.48946e-011 4.76572e-027   
     length 1.69941   
     axis -3.27501e-015 -90 -90   XYZ
    dof ry
    limits (-180.0 0.0)
  end
  begin
     id 28
     name rhand
     direction -1 -4.49028e-011 9.52595e-027   
     length 0.913886   
     axis -6.08097e-015 -90 -90   XYZ
    dof rx rz
    limits (-90.0 90.0)
           (-45.0 45.0)
  end
  begin
     id 29
     name rfingers
     direction -1 -4.48945e-011 1.9063e-026   
     length 0.736798   
     axis -1.21618e-014 -90 -90   XYZ
    dof rx
    limits (0.0 90.0)
  end
  begin
     id 30
     name rthumb
     direction -0.707107 -6.34966e-011 0.707107   
     length 1.0579   
     axis -90 -45 1.62303e-014   XYZ
    dof rx rz
    limits (-45.0 45.0)
           (-45.0 45.0)
  end
:hierarchy
  begin
    root lhipjoint rhipjoint lowerback
    lhipjoint lfemur
    lfemur ltibia
    ltibia lfoot
    lfoot ltoes
    rhipjoint rfemur
    rfemur rtibia
    rtibia rfoot
    rfoot rtoes
    lowerback upperback
    upperback thorax
    thorax lowerneck lclavicle rclavicle
    lowerneck upperneck
    upperneck head
    lclavicle lhumerus
    lhumerus lradius
    lradius lwrist
    lwrist lhand lthumb
    lhand lfingers
    rclavicle rhumerus
    rhumerus rradius
    rradius rwrist
    rwrist rhand rthumb
    rhand rfingers
  end

#!OML:ASF F:\VICON\USERDATA\INSTALL\rory3\rory3.ASF
:FULLY-SPECIFIED
:DEGREES
402
root -12.1196 17.7887 -10.6564 -365.858 30.0527 -357.972
lowerback 18.92 -4.94243 -9.85321
upperback 3.81363 -8.24818 1.59338
thorax -4.70604 -3.94473 9.04026
lowerneck -14.5091 -14.6625 -1.57535
upperneck 13.1227 -20.1859 3.71474
head 6.89128 -9.4847 -0.674404
rclavicle 5.33364e-014 3.23025e-015
rhumerus -38.5928 26.2967 -90.2497
rradius 97.6477
rwrist -39.7469
rhand -15.54 360.872
rfingers 7.12502
rthumb 10.6439 -748.839
lclavicle 5.33364e-014 3.23025e-015
lhumerus -43.1129 -12.7334 93.2237
lradius 99.4275
lwrist 5.62614
lhand -17.1272 27.9641
lfingers 7.12502
lthumb 9.11257 57.7473
rfemur -15.5711 -7.1178 8.02755
rtibia 51.1046
rfoot -13.9778 -6.14585
rtoes -16.3346
lfemur 5.45703 1.77513 -19.946
ltibia 36.4666
lfoot -15.3613 -1.73213
ltoes -25.4802
403
root -12.0491 17.8444 -10.6935 -365.827 29.1594 -358.485
lowerback 18.544 -5.1423 -9.05768
upperback 4.11685 -8.29209 1.81183
thorax -4.25028 -4.01955 8.76638
lowerneck -15.9665 -14.5855 -2.17694
upperneck 13.4213 -19.9332 3.58887
head 7.26768 -9.35022 -0.734715
rclavicle -5.24543e-014 9.93923e-016
rhumerus -37.3802 24.7434 -88.3265
rradius 97.0199
rwrist -40.8423
rhand -15.2009 360.183
rfingers 7.12502
rthumb 10.9709 -749.51
lclavicle -5.24543e-014 9.93923e-016
lhumerus -42.4126 -12.0259 92.6273
lradius 99.8082
lwrist 5.47884
lhand -13.0005 22.7211
lfingers 7.12502
lthumb 13.0927 52.2902
rfemur -15.6762 -8.95501 9.281
rtibia 53.5808
rfoot -12.8148 -5.61312
rtoes -14.0227
lfemur 3.8967 2.8848 -19.3155
ltibia 38.5391
lfoot -13.956 -2.71384
ltoes -27.4288
404
root -11.9873 17.8839 -10.7284 -365.711 28.3515 -358.835
lowerback 18.1104 -5.17063 -8.31843
upperback 4.27315 -8.15033 1.78718
thorax -3.994 -3.97652 8.23686
lowerneck -16.3521 -14.6022 -2.52565
upperneck 13.3628 -19.8817 3.68652
head 7.35564 -9.3237 -0.684193
rclavicle -1.54182e-014 2.84262e-014
rhumerus -36.5956 22.4484 -87.0039
rradius 96.0419
rwrist -40.8343
rhand -15.1497 359.21
rfingers 7.12502
rthumb 11.0203 -750.481
lclavicle -1.54182e-014 2.84262e-014
lhumerus -42.2403 -11.7967 92.0419
lradius 100.305
lwrist 6.04556
lhand -12.9825 23.7645
lfingers 7.12502
lthumb 13.1101 53.3324
rfemur -15.5594 -10.254 10.2962
rtibia 55.5382
rfoot -10.5988 -5.76676
rtoes -14.0865
lfemur 2.1004 3.88338 -18.796
ltibia 41.0403
lfoot -12.3914 -3.93922
ltoes -28.9682
405
root -11.9203 17.8969 -10.7749 -364.482 27.8699 -357.733
lowerback 17.1548 -5.06669 -8.61797
upperback 4.11933 -8.03198 1.25624
thorax -3.71622 -3.92733 7.70321
lowerneck -15.5741 -14.635 -2.34318
upperneck 12.8787 -19.9442 3.68975
head 7.05278 -9.3858 -0.630768
rclavicle 7.5532e-014 9.31803e-015
rhumerus -36.2985 19.6023 -86.2709
rradius 94.9232
rwrist -40.0942
rhand -15.9416 358.917
rfingers 7.12502
rthumb 10.2565 -750.813
lclavicle 7.5532e-014 9.31803e-015
lhumerus -42.5893 -11.9671 91.2422
lradius 100.92
lwrist 7.07715
lhand -12.5949 23.9017
lfingers 7.12502
lthumb 13.4837 53.4452
rfemur -15.6421 -11.4878 9.65359
rtibia 56.9249
rfoot -7.72835 -5.64219
rtoes -13.3023
lfemur -0.284922 4.83965 -19.6836
ltibia 43.8528
lfoot -10.5179 -5.55753
ltoes -28.9236
406
root -11.8715 17.9066 -10.7747 -365.315 26.9536 -359.201
lowerback 17.2878 -4.83266 -7.30958
upperback 3.69331 -7.52877 1.29534
thorax -4.51333 -3.62654 6.9967
lowerneck -13.2163 -14.6227 -1.92004
upperneck 12.2442 -19.9568 3.42025
head 6.39036 -9.48379 -0.548429
rclavicle -1.49275e-014 2.98177e-015
rhumerus -36.9926 16.9628 -85.9221
rradius 93.4266
rwrist -39.1006
rhand -16.7137 359.808
rfingers 7.12502
rthumb 9.51156 -749.958
lclavicle -1.49275e-014 2.98177e-015
lhumerus -44.2433 -12.2717 90.6877
lradius 101.808
lwrist 8.16126
lhand -11.9356 24.0796
lfingers 7.12502
lthumb 14.1191 53.5799
rfemur -14.2843 -11.6087 11.6377
rtibia 57.1594
rfoot -5.65596 -5.72072
rtoes -12.1368
lfemur -1.86799 6.19046 -17.5441
ltibia 47.031
lfoot -8.17441 -7.69366
ltoes -27.7547
407
root -11.8166 17.8855 -10.7844 -365.213 26.5467 -359.512
lowerback 16.9808 -4.97831 -6.6398
upperback 3.87948 -7.56856 1.39602
thorax -4.21852 -3.67377 6.68914
lowerneck -14.5419 -14.4523 -2.31861
upperneck 12.8021 -19.6256 3.18498
head 6.7929 -9.3085 -0.659999
rclavicle -2.01207e-014 -2.93207e-015
rhumerus -35.4861 15.3785 -84.5969
rradius 91.675
rwrist -38.1181
rhand -16.8406 358.478
rfingers 7.12502
rthumb 9.38914 -751.292
lclavicle -2.01207e-014 -2.93207e-015
lhumerus -43.7724 -11.3691 90.0679
lradius 102.279
lwrist 8.61047
lhand -12.0848 24.0931
lfingers 7.12502
lthumb 13.9753 53.6033
rfemur -12.9922 -11.7566 12.1992
rtibia 56.4108
rfoot -4.4634 -4.60954
rtoes -10.6194
lfemur -4.14476 7.29742 -16.5691
ltibia 50.3625
lfoot -4.61981 -9.62183
ltoes -26.8214
408
root -11.7636 17.8363 -10.7888 -365.154 26.2249 -359.727
lowerback 16.8085 -5.01842 -6.22903
upperback 3.80583 -7.54309 1.4261
thorax -4.26066 -3.66071 6.47563
lowerneck -13.4669 -14.2815 -2.97821
upperneck 11.892 -19.3452 3.9282
head 6.45892 -9.19392 -0.211787
rclavicle -1.31477e-014 9.20621e-015
rhumerus -34.7325 13.349 -83.5692
rradius 89.864
rwrist -36.8385
rhand -17.8043 358.602
rfingers 7.12502
rthumb 8.45917 -751.208
lclavicle -1.31477e-014 9.20621e-015
lhumerus -44.1506 -10.5836 89.6147
lradius 102.938
lwrist 8.11149
lhand -11.332 22.6947
lfingers 7.12502
lthumb 14.7006 52.1535
rfemur -11.2623 -11.3807 12.5953
rtibia 54.5713
rfoot -7.1915 -4.51219
rtoes -17.2466
lfemur -6.46722 8.23185 -15.569
ltibia 53.7282
lfoot -0.641172 -11.6943
ltoes -26.8482
